{"title":"Little.Murder.2011.DVDRip.XviD.OCW","uid":6873165,"size":1099994467,"categoryP":"video","categoryS":"movies","magnet":"?xt=urn:btih:7882f544a7aa0123eb4a28636d09ee53a23994b4&amp;dn=Little.Murder.2011.DVDRip.XviD.OCW&amp;tr=udp%3A%2F%2Ftracker.openbittorrent.com%3A80&amp;tr=udp%3A%2F%2Fopen.demonii.com%3A1337&amp;tr=udp%3A%2F%2Ftracker.coppersurfer.tk%3A6969&amp;tr=udp%3A%2F%2Fexodus.desync.com%3A6969","seeders":0,"leechers":1,"uploader":"LegendET","files":2,"time":1323337746,"description":"[center]\n\n[img]http://img198.imageshack.us/img198/2477/ejhv4hj3.jpg[/img] &lt;a href=&quot;\nhttp://imdb.com/title/tt1493815/&quot; rel=&quot;nofollow&quot; target=&quot;_NEW&quot;&gt;\nhttp://imdb.com/title/tt1493815/&lt;/a&gt;\n\nIn post-Katrina New Orleans, a disgraced detective encounters the ghost of a murdered woman who wants to help him identify her killer..\n\nGeneral\nComplete name : Little.Murder.2011.DVDRip.XviD.OCW.avi\nFormat : AVI\nFormat/Info : Audio Video Interleave\nFile size : 1.02 GiB\nDuration : 1h 33mn\nOverall bit rate : 1 564 Kbps\n\nVideo\nID : 0\nFormat : AVC\nFormat/Info : Advanced Video Codec\nFormat profile : &lt;a class=&quot;__cf_email__&quot; href=&quot;/cdn-cgi/l/email-protection&quot; data-cfemail=&quot;d991b0beb19995ecf7e8&quot;&gt;[email&amp;#160;protected]&lt;/a&gt;&lt;script cf-hash='f9e31' type=&quot;text/javascript&quot;&gt;\n/* &lt;![CDATA[ */!function(){try{var t=&quot;currentScript&quot;in document?document.currentScript:function(){for(var t=document.getElementsByTagName(&quot;script&quot;),e=t.length;e--;)if(t[e].getAttribute(&quot;cf-hash&quot;))return t[e]}();if(t&amp;&amp;t.previousSibling){var e,r,n,i,c=t.previousSibling,a=c.getAttribute(&quot;data-cfemail&quot;);if(a){for(e=&quot;&quot;,r=parseInt(a.substr(0,2),16),n=2;a.length-n;n+=2)i=parseInt(a.substr(n,2),16)^r,e+=String.fromCharCode(i);e=document.createTextNode(e),c.parentNode.replaceChild(e,c)}}}catch(u){}}();/* ]]&gt; */&lt;/script&gt;\nFormat settings, CABAC : Yes\nFormat settings, ReFrames : 2 frames\nCodec ID : H264\nDuration : 1h 33mn\nBit rate : 1 362 Kbps\nWidth : 1 024 pixels\nHeight : 576 pixels\nDisplay aspect ratio : 16:9\nFrame rate : 25.000 fps\nColor space : YUV\nChroma subsampling : 4:2:0\nBit depth : 8 bits\nScan type : Progressive\nBits/(Pixel*Frame) : 0.092\nStream size : 914 MiB (87%)\n\nAudio\nID : 1\nFormat : MPEG Audio\nFormat version : Version 1\nFormat profile : Layer 3\nCodec ID : 55\nCodec ID/Hint : MP3\nDuration : 1h 33mn\nBit rate mode : Constant\nBit rate : 192 Kbps\nChannel(s) : 2 channels\nSampling rate : 44.1 KHz\nCompression mode : Lossy\nStream size : 129 MiB (12%)\nAlignment : Split accross interleaves\nInterleave, duration : 40 ms (1.01 video frame)\nInterleave, preload duration : 457 ms\n\n[img]http://img15.imageshack.us/img15/4290/ewwsbayu.png[/img]\n[img]http://img94.imageshack.us/img94/7026/jhjrtjxe.png[/img][/center]","torrent":{"xt":"urn:btih:7882f544a7aa0123eb4a28636d09ee53a23994b4","amp;dn":"Little.Murder.2011.DVDRip.XviD.OCW","amp;tr":["udp%3A%2F%2Ftracker.openbittorrent.com%3A80","udp%3A%2F%2Fopen.demonii.com%3A1337","udp%3A%2F%2Ftracker.coppersurfer.tk%3A6969","udp%3A%2F%2Fexodus.desync.com%3A6969"],"infoHash":"7882f544a7aa0123eb4a28636d09ee53a23994b4","infoHashBuffer":{"type":"Buffer","data":[120,130,245,68,167,170,1,35,235,74,40,99,109,9,238,83,162,57,148,180]},"announce":[],"urlList":[]}}